<svg id="svg" version="1.1" xmlns="http://www.w3.org/2000/svg" xmlns:xlink="http://www.w3.org/1999/xlink" width="400" height="106.66666666666667" viewBox="0, 0, 400,106.66666666666667"><g id="svgg"><path id="path0" d="M171.333 15.006 C 170.921 15.090,170.171 15.208,169.667 15.268 C 169.162 15.329,168.655 15.454,168.539 15.546 C 168.422 15.637,168.047 15.770,167.705 15.840 C 163.599 16.681,158.821 20.723,156.780 25.083 C 156.522 25.633,156.204 26.296,156.072 26.555 C 155.941 26.815,155.833 27.176,155.833 27.358 C 155.833 27.540,155.743 27.852,155.633 28.053 C 155.523 28.253,155.383 28.792,155.321 29.250 C 155.260 29.708,155.115 30.668,155.000 31.382 C 154.689 33.309,155.274 37.265,156.162 39.250 C 157.261 41.705,158.059 43.057,159.249 44.483 C 159.854 45.207,161.676 46.914,162.008 47.067 C 162.187 47.150,162.333 47.281,162.333 47.359 C 162.333 47.436,162.442 47.500,162.575 47.500 C 162.708 47.500,162.877 47.596,162.950 47.714 C 163.130 48.003,166.106 49.500,166.500 49.500 C 166.673 49.500,166.860 49.575,166.917 49.667 C 166.973 49.758,167.173 49.833,167.360 49.833 C 167.547 49.833,167.936 49.936,168.225 50.061 C 168.945 50.373,172.117 50.864,173.198 50.832 C 174.581 50.790,174.553 50.779,174.444 51.320 C 174.391 51.588,174.156 52.202,173.924 52.685 C 173.691 53.167,173.500 53.631,173.500 53.714 C 173.500 53.798,173.399 54.103,173.276 54.391 C 173.064 54.889,172.785 55.809,172.334 57.500 C 172.224 57.913,172.076 58.737,172.005 59.333 C 171.934 59.929,171.777 61.217,171.656 62.196 C 171.442 63.920,171.540 65.501,172.079 69.000 C 172.210 69.857,172.961 72.538,173.276 73.275 C 173.399 73.564,173.500 73.871,173.500 73.956 C 173.500 74.343,175.674 78.427,176.375 79.357 C 176.627 79.691,176.833 80.010,176.833 80.064 C 176.833 80.171,177.228 80.661,178.182 81.740 C 178.511 82.112,178.961 82.635,179.182 82.902 C 179.403 83.169,179.763 83.544,179.982 83.735 C 180.201 83.927,180.734 84.401,181.166 84.790 C 181.598 85.179,182.469 85.869,183.101 86.323 C 183.733 86.778,184.341 87.229,184.451 87.325 C 184.562 87.421,184.725 87.500,184.814 87.500 C 184.903 87.500,185.075 87.598,185.196 87.718 C 185.318 87.838,186.167 88.294,187.083 88.731 C 188.000 89.169,188.880 89.596,189.039 89.680 C 189.199 89.764,189.412 89.833,189.514 89.833 C 189.616 89.833,189.936 89.938,190.225 90.066 C 191.393 90.585,193.649 91.170,195.167 91.349 C 199.707 91.882,199.293 91.882,203.833 91.349 C 204.919 91.221,206.147 90.953,207.083 90.639 C 207.358 90.546,207.808 90.409,208.083 90.333 C 208.569 90.200,209.406 89.916,210.083 89.655 C 210.743 89.401,212.927 88.313,213.417 87.995 C 213.692 87.817,214.029 87.613,214.167 87.544 C 214.549 87.349,215.863 86.457,216.317 86.083 C 218.936 83.929,219.938 82.957,221.128 81.417 C 221.553 80.867,221.946 80.379,222.000 80.333 C 222.235 80.136,223.673 77.833,224.133 76.917 C 225.124 74.945,225.667 73.719,225.667 73.455 C 225.667 73.307,225.733 73.145,225.814 73.095 C 225.896 73.045,226.015 72.722,226.079 72.377 C 226.144 72.032,226.255 71.675,226.327 71.583 C 226.399 71.492,226.511 71.049,226.576 70.601 C 226.641 70.152,226.756 69.664,226.831 69.517 C 227.759 67.695,227.370 57.718,226.306 56.082 C 226.246 55.990,226.144 55.633,226.080 55.289 C 226.015 54.944,225.896 54.622,225.814 54.572 C 225.733 54.521,225.667 54.365,225.667 54.224 C 225.667 53.953,225.390 53.280,224.731 51.943 C 224.087 50.635,224.158 50.431,225.208 50.568 C 227.458 50.864,228.075 50.867,229.872 50.590 C 230.905 50.431,231.986 50.196,232.275 50.067 C 232.564 49.939,232.953 49.833,233.140 49.833 C 233.327 49.833,233.527 49.758,233.583 49.667 C 233.640 49.575,233.831 49.500,234.007 49.500 C 234.454 49.500,237.116 48.179,237.641 47.697 C 237.772 47.576,238.076 47.352,238.315 47.198 C 239.372 46.521,241.099 44.785,241.994 43.500 C 242.218 43.179,242.453 42.879,242.518 42.833 C 242.582 42.788,242.986 42.037,243.415 41.167 C 244.432 39.101,244.622 38.668,244.727 38.167 C 244.774 37.938,244.890 37.450,244.984 37.083 C 245.668 34.407,245.604 30.215,244.843 27.917 C 242.905 22.055,238.801 17.710,233.667 16.082 C 233.162 15.922,232.563 15.713,232.333 15.618 C 232.104 15.523,231.542 15.391,231.083 15.326 C 230.625 15.260,229.637 15.116,228.887 15.005 C 227.818 14.847,227.261 14.848,226.304 15.008 C 225.633 15.120,224.708 15.262,224.250 15.323 C 223.792 15.384,223.253 15.523,223.053 15.633 C 222.852 15.743,222.501 15.833,222.271 15.833 C 222.041 15.833,221.810 15.903,221.758 15.987 C 221.706 16.072,221.422 16.194,221.129 16.258 C 220.835 16.323,220.479 16.435,220.339 16.508 C 220.198 16.580,219.746 16.804,219.333 17.004 C 217.177 18.050,214.408 20.440,213.167 22.327 C 213.029 22.536,212.842 22.795,212.750 22.902 C 212.381 23.334,211.624 24.784,210.915 26.417 C 209.882 28.793,209.409 32.984,209.903 35.374 C 210.048 36.077,210.167 36.927,210.167 37.262 L 210.167 37.870 209.542 37.754 C 209.198 37.689,208.842 37.577,208.750 37.504 C 208.658 37.431,208.321 37.317,208.000 37.250 C 207.679 37.182,207.342 37.080,207.250 37.023 C 206.975 36.850,205.323 36.487,204.167 36.345 C 199.768 35.805,199.513 35.791,197.708 35.995 C 194.134 36.398,192.234 36.725,191.750 37.019 C 190.646 37.690,190.231 37.284,190.513 35.807 C 190.914 33.704,190.717 29.421,190.170 28.328 C 190.100 28.187,189.986 27.815,189.917 27.500 C 189.848 27.185,189.732 26.813,189.660 26.672 C 189.588 26.532,189.364 26.008,189.162 25.508 C 188.960 25.009,188.616 24.316,188.398 23.970 C 188.179 23.623,188.000 23.296,188.000 23.241 C 188.000 23.187,187.906 23.045,187.792 22.925 C 187.677 22.805,187.471 22.535,187.333 22.325 C 186.799 21.508,185.482 20.088,184.482 19.250 C 183.736 18.626,182.333 17.667,182.166 17.667 C 182.075 17.667,182.000 17.593,182.000 17.503 C 182.000 17.413,181.813 17.293,181.583 17.235 C 181.354 17.178,181.167 17.070,181.167 16.995 C 181.167 16.921,180.943 16.811,180.669 16.750 C 180.395 16.690,180.128 16.572,180.075 16.487 C 180.023 16.403,179.865 16.333,179.724 16.333 C 179.583 16.333,179.231 16.228,178.942 16.099 C 178.653 15.969,178.229 15.827,178.000 15.782 C 177.771 15.737,177.358 15.623,177.083 15.529 C 175.677 15.046,172.542 14.761,171.333 15.006 " stroke="none" fill="#251d45" fill-rule="evenodd"></path><path id="path1" d="M0.000 53.333 L 0.000 106.667 200.000 106.667 L 400.000 106.667 400.000 53.333 L 400.000 0.000 200.000 0.000 L 0.000 0.000 0.000 53.333 M176.411 14.824 C 176.464 14.910,176.844 15.031,177.256 15.093 C 177.667 15.155,178.045 15.271,178.095 15.353 C 178.145 15.434,178.339 15.500,178.526 15.500 C 179.000 15.500,180.865 16.329,181.917 17.007 C 182.192 17.185,182.529 17.381,182.667 17.444 C 185.819 18.884,189.795 24.348,190.589 28.333 C 190.653 28.654,190.790 29.022,190.894 29.151 C 191.022 29.309,191.083 30.555,191.083 33.009 L 191.083 36.632 191.667 36.550 C 191.987 36.505,192.486 36.363,192.775 36.234 C 193.064 36.105,193.668 36.000,194.117 36.000 C 194.566 36.000,195.015 35.918,195.115 35.818 C 195.683 35.251,204.874 35.663,206.250 36.319 C 206.433 36.406,206.808 36.511,207.083 36.553 C 207.595 36.630,208.330 36.869,209.292 37.269 C 209.866 37.508,210.115 37.015,209.653 36.553 C 209.402 36.302,209.266 31.484,209.476 30.250 C 209.769 28.530,209.997 27.603,210.168 27.432 C 210.259 27.341,210.333 27.124,210.333 26.951 C 210.333 26.777,210.435 26.436,210.559 26.192 C 210.683 25.949,211.039 25.225,211.351 24.583 C 212.566 22.080,216.009 18.187,217.667 17.443 C 217.804 17.382,218.217 17.147,218.583 16.923 C 218.950 16.698,219.381 16.511,219.542 16.507 C 219.702 16.503,219.833 16.439,219.833 16.364 C 219.833 16.289,220.377 16.057,221.042 15.849 C 221.706 15.641,222.400 15.412,222.583 15.341 C 224.750 14.498,232.078 14.522,232.931 15.375 C 232.999 15.444,233.200 15.500,233.378 15.500 C 233.728 15.500,234.270 15.720,236.125 16.612 C 236.790 16.932,237.333 17.262,237.333 17.347 C 237.333 17.431,237.416 17.500,237.518 17.500 C 237.682 17.500,238.086 17.788,239.499 18.916 C 240.663 19.845,243.000 22.562,243.000 22.987 C 243.000 23.086,243.069 23.167,243.153 23.167 C 243.238 23.167,243.584 23.748,243.923 24.458 C 244.262 25.169,244.596 25.865,244.665 26.005 C 244.734 26.146,244.844 26.501,244.908 26.795 C 244.973 27.089,245.095 27.372,245.179 27.425 C 245.264 27.477,245.333 27.806,245.333 28.156 C 245.333 28.506,245.446 29.062,245.583 29.391 C 245.931 30.222,245.927 35.449,245.579 36.417 C 245.446 36.783,245.337 37.261,245.336 37.478 C 245.333 37.948,244.803 39.560,244.625 39.639 C 244.556 39.669,244.500 39.795,244.500 39.917 C 244.500 40.230,243.330 42.500,243.169 42.500 C 243.096 42.500,242.992 42.675,242.939 42.888 C 242.885 43.101,242.652 43.480,242.421 43.730 C 242.189 43.980,242.000 44.219,242.000 44.263 C 242.000 44.460,239.985 46.443,239.083 47.135 C 238.533 47.556,238.046 47.946,238.000 48.001 C 237.732 48.322,235.201 49.665,234.850 49.672 C 234.703 49.675,234.438 49.787,234.260 49.922 C 234.082 50.057,233.772 50.167,233.571 50.167 C 233.369 50.167,232.990 50.279,232.727 50.416 C 232.465 50.553,232.059 50.665,231.825 50.666 C 231.591 50.666,231.306 50.760,231.191 50.875 C 231.040 51.026,230.154 51.083,227.950 51.083 C 224.512 51.083,224.657 51.005,225.426 52.450 C 225.650 52.872,225.836 53.336,225.839 53.483 C 225.842 53.630,225.954 53.896,226.089 54.074 C 226.223 54.251,226.333 54.524,226.333 54.679 C 226.333 54.835,226.445 55.177,226.582 55.439 C 226.719 55.702,226.832 56.154,226.832 56.444 C 226.833 56.735,226.915 56.999,227.014 57.032 C 227.113 57.065,227.260 57.540,227.339 58.088 C 227.419 58.635,227.558 59.458,227.649 59.917 C 227.853 60.948,227.862 66.118,227.662 67.250 C 227.581 67.708,227.435 68.571,227.336 69.167 C 227.238 69.762,227.085 70.380,226.996 70.539 C 226.906 70.699,226.834 70.961,226.834 71.123 C 226.835 71.484,226.384 72.916,226.067 73.555 C 225.938 73.815,225.833 74.109,225.833 74.209 C 225.833 74.309,225.617 74.846,225.352 75.403 C 225.087 75.961,224.735 76.735,224.570 77.125 C 224.405 77.515,224.209 77.833,224.135 77.833 C 224.061 77.833,224.000 77.940,224.000 78.071 C 224.000 78.202,223.902 78.409,223.782 78.530 C 223.663 78.651,223.510 78.862,223.442 79.000 C 223.175 79.547,222.856 80.050,222.715 80.148 C 222.633 80.204,222.308 80.623,221.991 81.079 C 221.147 82.297,217.720 85.654,216.457 86.500 C 216.115 86.729,215.835 86.956,215.834 87.003 C 215.834 87.051,215.496 87.275,215.083 87.500 C 214.671 87.725,214.333 87.968,214.333 88.038 C 214.333 88.109,214.226 88.167,214.095 88.167 C 213.964 88.167,213.758 88.260,213.637 88.375 C 213.433 88.567,211.761 89.415,210.583 89.922 C 210.308 90.040,209.633 90.272,209.083 90.437 C 208.533 90.602,208.008 90.786,207.917 90.847 C 207.825 90.908,207.395 91.009,206.962 91.072 C 206.529 91.135,206.131 91.257,206.077 91.343 C 206.024 91.429,205.714 91.500,205.389 91.500 C 205.064 91.500,204.354 91.615,203.810 91.756 C 201.986 92.229,194.090 91.930,192.750 91.338 C 192.567 91.257,192.126 91.143,191.771 91.084 C 191.416 91.025,191.004 90.912,190.854 90.833 C 190.261 90.517,189.440 90.167,189.291 90.167 C 189.037 90.167,185.845 88.690,185.667 88.490 C 185.621 88.438,185.096 88.104,184.500 87.746 C 183.904 87.389,183.342 87.036,183.250 86.962 C 183.158 86.888,182.896 86.671,182.667 86.481 C 182.438 86.291,182.063 86.037,181.833 85.917 C 181.348 85.663,177.000 81.216,177.000 80.973 C 177.000 80.883,176.906 80.705,176.792 80.577 C 176.123 79.831,175.209 78.417,174.428 76.917 C 174.189 76.458,173.931 75.971,173.854 75.833 C 173.356 74.943,173.167 74.489,173.167 74.183 C 173.167 73.991,173.095 73.833,173.008 73.833 C 172.920 73.833,172.797 73.559,172.734 73.224 C 172.671 72.889,172.518 72.420,172.394 72.182 C 172.270 71.944,172.168 71.556,172.168 71.319 C 172.167 71.083,172.110 70.833,172.042 70.765 C 171.522 70.249,171.063 60.556,171.507 59.484 C 171.614 59.225,171.764 58.579,171.840 58.049 C 172.051 56.574,172.318 55.448,172.501 55.265 C 172.592 55.174,172.667 54.958,172.667 54.784 C 172.667 54.609,172.785 54.193,172.929 53.859 C 173.467 52.610,173.711 52.072,173.930 51.650 L 174.155 51.218 172.073 51.112 C 170.199 51.017,168.685 50.744,167.750 50.333 C 167.567 50.252,167.157 50.135,166.839 50.072 C 166.521 50.009,166.146 49.903,166.005 49.837 C 165.865 49.770,165.450 49.575,165.083 49.402 C 163.909 48.850,161.937 47.614,161.259 47.006 C 159.532 45.457,157.500 43.119,157.500 42.679 C 157.500 42.581,157.426 42.500,157.337 42.500 C 157.247 42.500,157.127 42.316,157.070 42.090 C 157.014 41.865,156.862 41.593,156.734 41.486 C 156.605 41.380,156.500 41.152,156.500 40.980 C 156.500 40.807,156.431 40.667,156.347 40.667 C 156.262 40.667,156.144 40.443,156.084 40.169 C 156.024 39.895,155.905 39.628,155.821 39.575 C 155.736 39.523,155.667 39.365,155.667 39.224 C 155.667 39.083,155.557 38.731,155.423 38.442 C 154.897 37.310,154.769 36.336,154.712 33.023 C 154.667 30.409,154.708 29.471,154.889 28.940 C 155.019 28.560,155.254 27.837,155.411 27.333 C 155.666 26.513,156.854 23.951,157.381 23.084 C 157.941 22.162,158.534 21.441,159.969 19.933 C 161.957 17.846,164.687 16.225,167.583 15.411 C 168.133 15.257,168.883 15.032,169.250 14.912 C 170.044 14.651,176.257 14.575,176.411 14.824 " stroke="none" fill="#f4f4f4" fill-rule="evenodd"></path><path id="path2" d="M172.297 14.790 C 172.782 14.824,173.532 14.823,173.964 14.789 C 174.396 14.755,174.000 14.727,173.083 14.728 C 172.167 14.728,171.813 14.756,172.297 14.790 M227.380 14.789 C 227.818 14.824,228.493 14.823,228.880 14.788 C 229.267 14.754,228.908 14.725,228.083 14.726 C 227.258 14.726,226.942 14.755,227.380 14.789 M160.573 19.542 L 160.083 20.083 160.625 19.594 C 160.923 19.325,161.167 19.081,161.167 19.052 C 161.167 18.923,161.029 19.037,160.573 19.542 M159.406 20.708 L 158.917 21.250 159.458 20.760 C 159.756 20.491,160.000 20.248,160.000 20.219 C 160.000 20.090,159.862 20.203,159.406 20.708 M240.500 20.219 C 240.500 20.248,240.744 20.491,241.042 20.760 L 241.583 21.250 241.094 20.708 C 240.638 20.203,240.500 20.090,240.500 20.219 M190.872 30.833 C 190.872 31.154,190.906 31.285,190.948 31.125 C 190.990 30.965,190.990 30.702,190.948 30.542 C 190.906 30.381,190.872 30.512,190.872 30.833 M154.730 32.917 C 154.731 34.017,154.758 34.445,154.790 33.868 C 154.823 33.292,154.823 32.392,154.790 31.868 C 154.757 31.345,154.730 31.817,154.730 32.917 M196.958 35.787 C 197.256 35.824,197.744 35.824,198.042 35.787 C 198.340 35.750,198.096 35.720,197.500 35.720 C 196.904 35.720,196.660 35.750,196.958 35.787 M200.792 35.787 C 201.090 35.824,201.577 35.824,201.875 35.787 C 202.173 35.750,201.929 35.720,201.333 35.720 C 200.737 35.720,200.494 35.750,200.792 35.787 M171.042 50.948 C 171.202 50.990,171.465 50.990,171.625 50.948 C 171.785 50.906,171.654 50.872,171.333 50.872 C 171.012 50.872,170.881 50.906,171.042 50.948 M225.794 50.951 C 226.001 50.991,226.301 50.990,226.460 50.948 C 226.620 50.906,226.450 50.874,226.083 50.875 C 225.717 50.877,225.586 50.911,225.794 50.951 M228.958 50.951 C 229.165 50.991,229.502 50.991,229.708 50.951 C 229.915 50.911,229.746 50.879,229.333 50.879 C 228.921 50.879,228.752 50.911,228.958 50.951 M227.542 61.250 C 227.544 61.617,227.578 61.747,227.618 61.540 C 227.658 61.332,227.656 61.032,227.615 60.873 C 227.573 60.714,227.540 60.883,227.542 61.250 M171.400 63.833 C 171.400 65.162,171.425 65.706,171.457 65.042 C 171.489 64.377,171.489 63.290,171.457 62.625 C 171.425 61.960,171.400 62.504,171.400 63.833 M178.500 82.552 C 178.500 82.581,178.744 82.825,179.042 83.094 L 179.583 83.583 179.094 83.042 C 178.638 82.537,178.500 82.423,178.500 82.552 M179.833 83.885 C 179.833 83.914,180.077 84.158,180.375 84.427 L 180.917 84.917 180.427 84.375 C 179.971 83.870,179.833 83.757,179.833 83.885 M197.708 91.956 C 198.235 91.990,199.098 91.990,199.625 91.956 C 200.152 91.923,199.721 91.896,198.667 91.896 C 197.612 91.896,197.181 91.923,197.708 91.956 " stroke="none" fill="#9492a4" fill-rule="evenodd"></path><path id="path3" d="M169.667 15.104 L 168.750 15.329 169.667 15.244 C 170.171 15.197,170.921 15.095,171.333 15.017 L 172.083 14.875 171.333 14.877 C 170.921 14.878,170.171 14.981,169.667 15.104 M174.333 15.004 C 174.746 15.074,175.496 15.187,176.000 15.255 C 176.504 15.324,177.119 15.482,177.367 15.607 C 177.614 15.731,177.962 15.833,178.139 15.833 C 178.317 15.833,178.677 15.945,178.939 16.082 C 179.202 16.219,179.543 16.332,179.698 16.332 C 179.854 16.333,180.023 16.403,180.075 16.487 C 180.128 16.572,180.395 16.690,180.669 16.750 C 180.943 16.811,181.167 16.921,181.167 16.995 C 181.167 17.070,181.354 17.178,181.583 17.235 C 181.813 17.293,182.000 17.413,182.000 17.503 C 182.000 17.593,182.075 17.667,182.166 17.667 C 182.333 17.667,183.736 18.626,184.482 19.250 C 185.482 20.088,186.799 21.508,187.333 22.325 C 187.471 22.535,187.658 22.792,187.750 22.896 C 188.207 23.413,189.500 26.022,189.500 26.428 C 189.500 26.548,189.568 26.689,189.652 26.741 C 189.736 26.793,189.855 27.134,189.917 27.500 C 189.978 27.866,190.109 28.215,190.207 28.275 C 190.327 28.349,190.346 28.253,190.265 27.984 C 190.199 27.764,190.086 27.358,190.015 27.083 C 188.452 21.053,180.206 14.657,174.250 14.856 L 173.583 14.878 174.333 15.004 M225.134 14.921 C 225.086 14.970,224.717 15.080,224.315 15.167 C 223.349 15.375,224.963 15.244,226.167 15.017 L 226.917 14.875 226.069 14.854 C 225.603 14.843,225.183 14.873,225.134 14.921 M229.083 15.016 C 229.542 15.092,230.329 15.194,230.833 15.243 L 231.750 15.333 230.833 15.090 C 230.329 14.957,229.542 14.854,229.083 14.863 L 228.250 14.878 229.083 15.016 M168.000 15.489 C 167.862 15.564,167.300 15.763,166.750 15.931 C 165.663 16.263,164.097 16.986,164.214 17.103 C 164.254 17.143,164.653 16.998,165.101 16.781 C 166.129 16.284,166.908 16.003,167.722 15.837 C 168.375 15.704,168.967 15.324,168.492 15.343 C 168.359 15.349,168.137 15.414,168.000 15.489 M222.500 15.594 C 221.992 15.786,221.970 15.815,222.333 15.818 C 222.563 15.820,222.938 15.714,223.167 15.583 C 223.681 15.290,223.288 15.296,222.500 15.594 M232.250 15.574 C 232.525 15.695,233.162 15.924,233.667 16.083 C 238.797 17.703,243.165 22.351,244.850 27.981 C 244.970 28.383,245.096 28.629,245.129 28.528 C 245.326 27.937,243.400 23.722,242.236 22.198 C 239.814 19.026,237.077 17.023,233.551 15.841 C 231.981 15.316,231.379 15.192,232.250 15.574 M221.250 15.995 C 221.067 16.072,220.504 16.301,220.000 16.504 C 214.925 18.547,209.667 25.773,209.667 30.703 C 209.667 31.351,209.843 30.889,210.006 29.814 C 210.181 28.662,210.569 27.213,210.915 26.417 C 211.624 24.784,212.381 23.334,212.750 22.902 C 212.842 22.795,213.029 22.536,213.167 22.327 C 214.408 20.440,217.177 18.050,219.333 17.004 C 219.746 16.804,220.198 16.580,220.339 16.508 C 220.479 16.435,220.835 16.323,221.129 16.258 C 221.422 16.194,221.706 16.072,221.758 15.987 C 221.872 15.803,221.703 15.806,221.250 15.995 M163.500 17.417 C 163.386 17.554,163.226 17.667,163.145 17.667 C 162.240 17.667,156.750 23.472,157.215 23.937 C 157.259 23.982,157.652 23.482,158.088 22.827 C 159.190 21.169,160.519 19.776,162.083 18.641 C 162.817 18.108,163.567 17.562,163.750 17.427 C 163.933 17.292,163.999 17.178,163.895 17.174 C 163.792 17.170,163.614 17.279,163.500 17.417 M156.413 25.413 C 156.082 26.121,155.850 26.739,155.899 26.788 C 155.948 26.837,156.075 26.660,156.183 26.397 C 156.290 26.133,156.558 25.550,156.777 25.101 C 156.996 24.653,157.139 24.250,157.095 24.206 C 157.051 24.162,156.744 24.705,156.413 25.413 M155.534 27.676 C 155.416 28.060,155.350 28.405,155.387 28.443 C 155.505 28.561,155.865 27.539,155.806 27.252 C 155.775 27.101,155.653 27.292,155.534 27.676 M190.364 29.000 C 190.366 29.791,190.788 31.460,190.806 30.750 C 190.813 30.475,190.716 29.837,190.590 29.333 C 190.394 28.544,190.362 28.498,190.364 29.000 M155.112 29.250 C 154.972 30.041,154.807 31.990,154.900 31.750 C 155.066 31.320,155.364 29.206,155.301 28.913 C 155.254 28.696,155.189 28.811,155.112 29.250 M245.285 29.833 C 245.350 30.337,245.403 31.688,245.403 32.833 C 245.403 33.979,245.350 35.329,245.285 35.833 L 245.167 36.750 245.410 35.833 C 245.561 35.264,245.653 34.128,245.653 32.833 C 245.653 31.538,245.561 30.403,245.410 29.833 L 245.167 28.917 245.285 29.833 M209.562 32.833 C 209.562 33.796,209.589 34.190,209.623 33.708 C 209.657 33.227,209.657 32.440,209.623 31.958 C 209.589 31.477,209.562 31.871,209.562 32.833 M190.814 33.000 C 190.758 33.962,190.615 35.263,190.495 35.890 C 190.232 37.279,190.672 37.675,191.750 37.019 C 191.842 36.964,192.329 36.820,192.833 36.701 C 193.694 36.496,194.389 36.390,197.250 36.026 L 198.417 35.877 197.545 35.855 C 196.404 35.827,194.630 36.099,192.667 36.605 C 191.796 36.830,190.971 37.029,190.833 37.048 C 190.538 37.090,190.535 36.756,190.818 35.075 C 190.926 34.429,190.993 33.304,190.966 32.575 L 190.917 31.250 190.814 33.000 M154.856 34.317 C 154.830 35.159,155.271 37.489,155.598 38.241 C 155.899 38.931,155.899 38.347,155.598 37.545 C 155.468 37.199,155.310 36.504,155.246 36.000 C 155.183 35.496,155.074 34.746,155.004 34.333 L 154.878 33.583 154.856 34.317 M209.681 34.990 C 209.673 35.214,209.757 35.832,209.867 36.365 C 210.144 37.708,210.029 37.769,208.324 37.190 C 206.705 36.639,205.323 36.288,205.212 36.399 C 205.111 36.500,206.313 36.831,206.782 36.832 C 206.983 36.833,207.188 36.900,207.238 36.981 C 207.289 37.062,207.612 37.182,207.956 37.246 C 208.301 37.310,208.658 37.425,208.750 37.500 C 208.842 37.575,209.210 37.692,209.568 37.759 L 210.219 37.880 210.109 36.732 C 209.984 35.418,209.706 34.287,209.681 34.990 M198.961 35.787 C 199.261 35.825,199.711 35.824,199.961 35.786 C 200.212 35.748,199.967 35.717,199.417 35.718 C 198.867 35.719,198.662 35.750,198.961 35.787 M201.583 36.001 C 202.133 36.081,203.146 36.184,203.833 36.230 C 204.997 36.308,205.020 36.303,204.167 36.164 C 203.662 36.082,202.650 35.979,201.917 35.935 C 200.656 35.860,200.638 35.864,201.583 36.001 M244.871 37.542 C 244.759 37.853,244.670 38.252,244.675 38.428 C 244.679 38.605,244.796 38.426,244.935 38.030 C 245.073 37.634,245.162 37.235,245.131 37.144 C 245.101 37.052,244.983 37.231,244.871 37.542 M155.839 38.864 C 155.812 39.427,157.590 42.688,158.638 44.000 C 159.945 45.636,163.000 48.324,163.000 47.838 C 163.000 47.738,162.869 47.608,162.708 47.549 C 162.548 47.489,162.379 47.392,162.333 47.331 C 162.287 47.271,162.124 47.153,161.970 47.069 C 160.348 46.185,156.333 40.837,156.333 39.560 C 156.333 39.374,155.847 38.689,155.839 38.864 M244.316 39.270 C 243.982 40.089,242.641 42.745,242.518 42.833 C 242.453 42.879,242.218 43.179,241.994 43.500 C 241.048 44.858,239.428 46.464,238.126 47.333 C 237.783 47.563,237.502 47.811,237.501 47.885 C 237.497 48.336,240.700 45.489,241.871 44.000 C 243.025 42.534,244.839 39.117,244.595 38.872 C 244.549 38.827,244.424 39.006,244.316 39.270 M163.421 48.228 C 164.144 48.730,165.637 49.440,166.583 49.733 C 167.133 49.904,167.762 50.111,167.980 50.194 C 168.198 50.278,168.415 50.308,168.461 50.261 C 168.572 50.150,167.736 49.833,167.332 49.833 C 167.160 49.833,166.973 49.758,166.917 49.667 C 166.860 49.575,166.671 49.500,166.497 49.500 C 166.323 49.500,165.524 49.163,164.723 48.750 C 163.229 47.981,162.842 47.826,163.421 48.228 M236.681 48.276 C 236.464 48.427,235.866 48.760,235.352 49.016 C 234.838 49.271,234.500 49.485,234.602 49.490 C 234.792 49.500,236.496 48.632,237.079 48.228 C 237.260 48.103,237.333 48.000,237.241 48.000 C 237.149 48.000,236.897 48.124,236.681 48.276 M233.583 49.667 C 233.527 49.758,233.340 49.833,233.168 49.833 C 232.996 49.833,232.644 49.922,232.386 50.031 C 232.128 50.140,231.204 50.355,230.333 50.509 C 229.259 50.700,228.954 50.797,229.385 50.812 C 230.240 50.841,234.333 49.812,234.333 49.569 C 234.333 49.423,233.681 49.509,233.583 49.667 M169.250 50.525 C 169.617 50.610,170.329 50.712,170.833 50.752 L 171.750 50.825 170.667 50.589 C 170.071 50.460,169.358 50.358,169.083 50.363 C 168.638 50.371,168.656 50.388,169.250 50.525 M224.333 50.802 C 224.333 51.190,224.993 52.563,225.119 52.437 C 225.171 52.384,225.136 52.246,225.041 52.129 C 224.946 52.012,224.795 51.650,224.706 51.324 L 224.545 50.732 225.564 50.775 C 226.503 50.815,226.531 50.806,225.917 50.669 C 224.807 50.420,224.333 50.460,224.333 50.802 M172.917 50.845 L 171.750 50.941 173.042 50.971 C 174.508 51.004,174.479 50.962,173.906 52.259 C 173.349 53.519,173.059 54.323,172.648 55.750 C 172.463 56.392,172.242 57.147,172.156 57.428 C 172.070 57.710,172.006 58.048,172.014 58.178 C 172.035 58.550,172.484 57.465,172.492 57.022 C 172.500 56.616,172.889 55.315,173.278 54.391 C 173.400 54.103,173.500 53.798,173.500 53.714 C 173.500 53.631,173.691 53.167,173.924 52.685 C 174.816 50.835,174.739 50.695,172.917 50.845 M227.125 50.954 C 227.423 50.991,227.910 50.991,228.208 50.954 C 228.506 50.917,228.262 50.887,227.667 50.887 C 227.071 50.887,226.827 50.917,227.125 50.954 M225.177 52.773 C 225.171 52.877,225.279 53.177,225.416 53.439 C 225.553 53.702,225.665 54.043,225.666 54.198 C 225.666 54.354,225.733 54.521,225.814 54.572 C 225.896 54.622,226.015 54.944,226.080 55.289 C 226.144 55.633,226.246 55.990,226.306 56.082 C 226.487 56.360,226.827 57.978,227.094 59.825 C 227.355 61.640,227.500 62.117,227.500 61.163 C 227.500 59.861,226.645 56.116,225.922 54.250 C 225.567 53.332,225.188 52.581,225.177 52.773 M171.777 59.500 C 171.625 60.605,171.477 62.650,171.568 62.417 C 171.720 62.023,172.032 59.380,171.971 59.000 C 171.927 58.726,171.861 58.898,171.777 59.500 M227.532 63.583 C 227.511 64.592,227.385 66.017,227.253 66.750 C 227.120 67.483,227.019 68.383,227.028 68.750 L 227.045 69.417 227.164 68.667 C 227.570 66.110,227.677 64.896,227.627 63.417 L 227.570 61.750 227.532 63.583 M171.596 66.333 C 171.642 67.021,171.742 67.958,171.818 68.417 L 171.955 69.250 171.965 68.500 C 171.971 68.087,171.871 67.150,171.744 66.417 L 171.513 65.083 171.596 66.333 M172.018 69.500 C 172.011 69.717,172.195 70.416,172.831 72.583 C 173.991 76.542,177.048 81.241,180.585 84.504 C 182.222 86.014,184.500 87.663,184.500 87.337 C 184.500 87.243,184.442 87.167,184.371 87.167 C 184.180 87.167,182.067 85.600,181.166 84.790 C 180.734 84.401,180.201 83.927,179.982 83.735 C 179.763 83.544,179.403 83.169,179.182 82.902 C 178.961 82.635,178.511 82.112,178.182 81.740 C 177.228 80.661,176.833 80.171,176.833 80.064 C 176.833 80.010,176.627 79.691,176.375 79.357 C 175.674 78.427,173.500 74.343,173.500 73.956 C 173.500 73.871,173.400 73.564,173.278 73.275 C 172.889 72.351,172.500 71.051,172.492 70.644 C 172.484 70.201,172.032 69.110,172.018 69.500 M226.783 69.614 C 226.737 69.689,226.645 70.125,226.579 70.583 C 226.512 71.042,226.399 71.492,226.327 71.583 C 226.255 71.675,226.144 72.032,226.079 72.377 C 226.015 72.722,225.896 73.045,225.814 73.095 C 225.733 73.145,225.667 73.307,225.667 73.455 C 225.667 73.719,225.124 74.945,224.133 76.917 C 223.673 77.833,222.235 80.136,222.000 80.333 C 221.946 80.379,221.553 80.867,221.128 81.417 C 219.938 82.957,218.936 83.929,216.317 86.083 C 215.863 86.457,214.549 87.349,214.167 87.544 C 214.029 87.613,213.692 87.817,213.417 87.995 C 212.927 88.313,210.743 89.401,210.083 89.655 C 209.328 89.946,208.553 90.203,208.069 90.324 C 207.536 90.457,206.810 90.819,207.059 90.828 C 207.390 90.840,210.344 89.766,211.578 89.185 C 215.525 87.326,219.476 84.064,222.091 80.506 C 224.229 77.596,225.959 73.906,226.811 70.436 C 226.996 69.683,226.982 69.290,226.783 69.614 M185.750 88.213 C 186.183 88.533,187.887 89.383,188.792 89.729 C 189.181 89.878,189.781 90.109,190.125 90.242 C 190.687 90.459,191.617 90.755,193.095 91.184 C 193.377 91.266,193.752 91.328,193.928 91.321 C 194.366 91.303,193.212 90.864,192.667 90.841 C 192.283 90.824,191.273 90.501,190.114 90.026 C 189.856 89.920,189.574 89.833,189.487 89.833 C 189.400 89.833,189.199 89.763,189.039 89.677 C 188.665 89.474,185.802 88.107,185.583 88.027 C 185.492 87.993,185.567 88.077,185.750 88.213 M205.333 91.083 C 204.567 91.378,205.026 91.381,206.083 91.087 C 206.739 90.905,206.810 90.856,206.417 90.857 C 206.142 90.858,205.654 90.960,205.333 91.083 M195.083 91.513 C 195.542 91.599,196.554 91.700,197.333 91.737 C 198.731 91.803,198.736 91.802,197.667 91.660 C 195.860 91.419,194.036 91.316,195.083 91.513 M202.774 91.448 C 202.711 91.511,202.118 91.618,201.455 91.685 L 200.250 91.808 201.583 91.738 C 202.317 91.699,203.292 91.602,203.750 91.523 L 204.583 91.378 203.736 91.356 C 203.270 91.343,202.837 91.385,202.774 91.448 " stroke="none" fill="#847c94" fill-rule="evenodd"></path><path id="path4" d="M169.333 14.931 L 168.750 15.171 169.333 15.063 C 169.654 15.003,170.292 14.900,170.750 14.834 L 171.583 14.714 170.750 14.703 C 170.292 14.697,169.654 14.800,169.333 14.931 M175.250 14.838 C 176.215 15.026,177.307 15.172,176.917 15.062 C 176.733 15.010,176.512 14.900,176.425 14.817 C 176.338 14.734,175.888 14.676,175.425 14.688 L 174.583 14.708 175.250 14.838 M224.167 14.931 C 223.635 15.149,223.627 15.160,224.083 15.062 C 224.358 15.003,225.071 14.900,225.667 14.834 L 226.750 14.714 225.750 14.703 C 225.200 14.697,224.487 14.799,224.167 14.931 M230.083 14.838 C 230.450 14.909,231.050 15.016,231.417 15.075 L 232.083 15.182 231.417 14.927 C 231.050 14.786,230.450 14.680,230.083 14.690 L 229.417 14.708 230.083 14.838 M167.333 15.451 C 165.459 16.055,163.541 17.026,161.892 18.205 C 160.589 19.137,157.500 22.459,157.500 22.928 C 157.500 22.999,157.375 23.195,157.223 23.363 C 157.071 23.531,156.979 23.701,157.019 23.741 C 157.059 23.781,157.462 23.275,157.913 22.615 C 160.138 19.369,163.202 17.051,166.917 15.802 C 167.742 15.525,168.448 15.269,168.486 15.232 C 168.618 15.108,168.081 15.209,167.333 15.451 M177.750 15.423 C 178.025 15.549,178.379 15.655,178.536 15.659 C 178.834 15.667,179.525 15.945,180.882 16.604 C 181.322 16.817,181.639 16.923,181.587 16.839 C 181.497 16.694,180.843 16.361,179.475 15.765 C 179.140 15.619,178.713 15.500,178.526 15.500 C 178.339 15.500,178.140 15.425,178.083 15.333 C 178.027 15.242,177.816 15.173,177.615 15.180 C 177.298 15.192,177.315 15.224,177.750 15.423 M222.583 15.333 C 222.527 15.425,222.316 15.509,222.115 15.519 C 221.889 15.531,221.848 15.565,222.009 15.609 C 222.151 15.647,222.526 15.566,222.842 15.429 C 223.295 15.233,223.339 15.178,223.052 15.173 C 222.851 15.170,222.640 15.242,222.583 15.333 M232.500 15.417 C 232.729 15.548,233.039 15.658,233.188 15.661 C 233.585 15.669,235.983 16.658,236.708 17.113 C 237.052 17.328,237.333 17.434,237.333 17.349 C 237.333 17.263,236.790 16.932,236.125 16.612 C 234.254 15.712,233.727 15.500,233.360 15.500 C 233.173 15.500,232.973 15.425,232.917 15.333 C 232.860 15.242,232.649 15.169,232.448 15.173 C 232.096 15.178,232.097 15.187,232.500 15.417 M220.542 15.973 C 220.152 16.120,219.833 16.291,219.833 16.354 C 219.833 16.458,221.492 15.894,221.653 15.735 C 221.796 15.594,221.226 15.716,220.542 15.973 M218.583 16.923 C 218.217 17.147,217.804 17.382,217.667 17.443 C 216.372 18.024,211.496 23.218,211.882 23.605 C 211.926 23.649,212.303 23.174,212.720 22.551 C 214.116 20.459,216.780 18.073,219.081 16.852 C 219.446 16.659,219.634 16.503,219.498 16.507 C 219.361 16.511,218.950 16.698,218.583 16.923 M182.667 17.574 C 182.667 17.615,183.073 17.919,183.570 18.248 C 186.323 20.076,189.297 24.195,190.163 27.380 C 190.282 27.818,190.419 28.137,190.467 28.089 C 190.842 27.713,188.876 23.551,187.501 21.812 C 186.103 20.044,182.667 17.032,182.667 17.574 M237.500 17.568 C 237.500 17.605,238.013 18.016,238.641 18.481 C 239.936 19.441,241.779 21.323,242.424 22.344 C 242.662 22.722,242.897 22.991,242.946 22.943 C 243.149 22.740,240.684 19.861,239.499 18.916 C 237.772 17.538,237.500 17.355,237.500 17.568 M243.384 23.792 C 243.597 24.135,243.985 24.924,244.245 25.544 C 244.505 26.163,244.757 26.632,244.804 26.585 C 244.896 26.493,244.862 26.410,243.926 24.458 C 243.586 23.748,243.237 23.167,243.151 23.167 C 243.066 23.167,243.170 23.448,243.384 23.792 M156.257 25.198 C 155.932 25.857,155.670 26.476,155.675 26.573 C 155.682 26.730,156.210 25.725,156.788 24.451 C 157.226 23.487,156.816 24.064,156.257 25.198 M211.014 25.141 C 210.914 25.327,210.834 25.577,210.834 25.697 C 210.835 25.818,210.949 25.699,211.087 25.434 C 211.226 25.168,211.307 24.918,211.266 24.878 C 211.226 24.838,211.113 24.956,211.014 25.141 M210.495 26.342 C 210.395 26.530,210.336 26.797,210.364 26.936 C 210.393 27.074,210.499 26.921,210.600 26.594 C 210.806 25.926,210.768 25.833,210.495 26.342 M155.371 27.375 C 155.259 27.686,155.172 28.048,155.178 28.178 C 155.185 28.309,155.299 28.120,155.431 27.758 C 155.564 27.396,155.650 27.035,155.624 26.955 C 155.597 26.875,155.483 27.064,155.371 27.375 M244.847 27.000 C 244.869 27.472,245.307 28.452,245.321 28.061 C 245.328 27.865,245.221 27.490,245.084 27.227 C 244.947 26.965,244.841 26.863,244.847 27.000 M209.996 27.761 C 209.906 27.996,209.841 28.352,209.850 28.553 C 209.864 28.833,209.897 28.801,209.996 28.417 C 210.067 28.142,210.180 27.785,210.247 27.625 C 210.314 27.465,210.322 27.333,210.264 27.333 C 210.206 27.333,210.085 27.526,209.996 27.761 M190.515 28.500 C 190.509 28.637,190.615 29.162,190.750 29.667 C 191.066 30.845,191.074 34.723,190.763 36.025 C 190.510 37.083,190.491 37.072,191.833 36.678 L 192.417 36.507 191.750 36.565 L 191.083 36.624 191.083 33.088 C 191.083 30.715,191.019 29.420,190.887 29.151 C 190.779 28.930,190.654 28.637,190.609 28.500 C 190.535 28.278,190.525 28.278,190.515 28.500 M154.865 29.058 C 154.756 29.360,154.675 29.939,154.686 30.345 C 154.697 30.751,154.735 30.933,154.771 30.750 C 154.807 30.567,154.918 30.017,155.016 29.529 C 155.225 28.498,155.151 28.267,154.865 29.058 M209.614 29.230 C 209.551 29.394,209.507 29.727,209.515 29.972 C 209.529 30.386,209.541 30.379,209.690 29.860 C 209.864 29.258,209.801 28.743,209.614 29.230 M245.433 29.333 C 245.490 29.563,245.591 30.387,245.658 31.167 L 245.781 32.583 245.799 31.250 C 245.812 30.382,245.733 29.742,245.574 29.417 C 245.370 28.999,245.347 28.985,245.433 29.333 M209.399 32.833 C 209.399 34.071,209.425 34.577,209.457 33.958 C 209.489 33.340,209.489 32.327,209.457 31.708 C 209.425 31.090,209.399 31.596,209.399 32.833 M245.699 34.350 C 245.681 34.955,245.585 35.685,245.485 35.972 C 245.385 36.258,245.337 36.588,245.379 36.705 C 245.541 37.158,245.845 35.432,245.790 34.371 L 245.732 33.250 245.699 34.350 M154.743 35.583 C 154.825 36.846,155.661 39.668,155.666 38.697 C 155.666 38.577,155.590 38.335,155.497 38.160 C 155.342 37.871,155.232 37.424,154.825 35.417 C 154.693 34.767,154.691 34.771,154.743 35.583 M209.500 35.879 C 209.500 36.210,209.580 36.530,209.677 36.590 C 209.798 36.665,209.818 36.495,209.739 36.058 C 209.584 35.207,209.500 35.144,209.500 35.879 M195.833 35.622 C 195.512 35.660,195.175 35.770,195.083 35.867 C 194.966 35.991,195.091 36.005,195.500 35.915 C 195.821 35.844,197.096 35.734,198.333 35.672 L 200.583 35.558 198.500 35.556 C 197.354 35.554,196.154 35.584,195.833 35.622 M202.750 35.833 C 203.532 36.032,203.974 36.032,203.667 35.833 C 203.529 35.744,203.154 35.679,202.833 35.689 L 202.250 35.706 202.750 35.833 M192.875 36.172 C 192.345 36.385,192.408 36.562,192.958 36.408 C 193.210 36.338,193.754 36.227,194.167 36.162 L 194.917 36.045 194.083 36.033 C 193.625 36.026,193.081 36.089,192.875 36.172 M204.292 36.118 C 204.498 36.157,204.835 36.157,205.042 36.118 C 205.248 36.078,205.079 36.045,204.667 36.045 C 204.254 36.045,204.085 36.078,204.292 36.118 M205.750 36.333 C 206.209 36.530,206.372 36.530,206.250 36.333 C 206.193 36.242,205.983 36.172,205.782 36.178 C 205.430 36.190,205.429 36.195,205.750 36.333 M207.000 36.663 C 207.321 36.732,207.733 36.841,207.917 36.906 C 208.135 36.983,208.106 36.935,207.833 36.767 C 207.604 36.627,207.192 36.518,206.917 36.525 C 206.425 36.538,206.427 36.540,207.000 36.663 M208.811 37.257 C 209.119 37.390,209.457 37.497,209.561 37.494 C 209.890 37.484,208.932 37.012,208.583 37.012 C 208.353 37.013,208.424 37.088,208.811 37.257 M245.016 38.006 C 244.709 39.211,244.066 40.726,243.373 41.875 C 243.166 42.219,243.065 42.500,243.148 42.500 C 243.328 42.500,244.500 40.249,244.500 39.903 C 244.500 39.773,244.556 39.666,244.625 39.665 C 244.803 39.663,245.375 37.756,245.306 37.396 C 245.274 37.231,245.144 37.506,245.016 38.006 M155.673 39.106 C 155.669 39.210,155.779 39.510,155.916 39.773 C 156.053 40.035,156.162 40.137,156.160 40.000 C 156.154 39.701,155.681 38.833,155.673 39.106 M157.500 42.738 C 157.500 43.123,159.641 45.555,161.259 47.007 C 162.167 47.822,165.249 49.668,165.699 49.666 C 165.819 49.665,165.411 49.405,164.792 49.088 C 162.203 47.759,160.052 45.965,158.313 43.683 C 157.866 43.097,157.500 42.671,157.500 42.738 M242.460 43.352 C 242.209 43.708,242.071 44.000,242.155 44.000 C 242.318 44.000,243.078 42.853,242.977 42.760 C 242.944 42.729,242.711 42.995,242.460 43.352 M240.501 45.611 C 238.994 47.120,237.446 48.246,235.674 49.123 C 235.074 49.419,234.703 49.663,234.850 49.664 C 235.194 49.667,237.725 48.331,238.000 48.001 C 238.046 47.946,238.533 47.556,239.083 47.135 C 240.063 46.384,242.087 44.365,241.974 44.252 C 241.942 44.220,241.280 44.832,240.501 45.611 M234.000 49.833 C 233.862 49.922,233.611 49.996,233.442 49.997 C 233.272 49.999,232.897 50.103,232.609 50.229 C 231.714 50.619,230.323 50.883,228.500 51.007 L 226.750 51.127 228.881 51.090 C 230.232 51.067,231.084 50.983,231.206 50.860 C 231.313 50.754,231.591 50.666,231.825 50.666 C 232.059 50.665,232.465 50.553,232.727 50.416 C 232.990 50.279,233.369 50.167,233.571 50.167 C 233.772 50.167,234.082 50.057,234.260 49.922 C 234.617 49.652,234.397 49.577,234.000 49.833 M169.167 50.759 C 169.579 50.889,170.142 50.990,170.417 50.984 C 170.754 50.976,170.590 50.899,169.917 50.747 C 168.613 50.453,168.216 50.459,169.167 50.759 M224.751 50.998 C 224.638 51.182,225.161 52.395,225.296 52.260 C 225.342 52.213,225.307 52.079,225.216 51.962 C 224.837 51.473,224.835 51.155,225.211 51.004 L 225.583 50.854 225.218 50.844 C 225.017 50.838,224.807 50.908,224.751 50.998 M172.723 51.124 L 174.196 51.180 173.921 51.600 C 173.770 51.831,173.673 52.102,173.706 52.202 C 173.740 52.302,173.889 52.132,174.038 51.824 C 174.416 51.044,174.335 50.996,172.698 51.034 L 171.250 51.069 172.723 51.124 M173.316 52.937 C 173.208 53.201,173.018 53.653,172.893 53.942 C 172.769 54.231,172.667 54.609,172.667 54.784 C 172.667 54.958,172.592 55.174,172.501 55.265 C 172.328 55.439,172.022 56.677,171.908 57.667 C 171.865 58.033,171.931 57.910,172.084 57.333 C 172.430 56.028,172.849 54.639,173.012 54.250 C 173.494 53.101,173.661 52.606,173.592 52.536 C 173.548 52.493,173.424 52.673,173.316 52.937 M225.333 52.620 C 225.333 52.726,225.408 52.860,225.500 52.917 C 225.592 52.973,225.675 53.184,225.686 53.385 C 225.701 53.662,225.724 53.680,225.781 53.461 C 225.823 53.303,225.739 53.005,225.595 52.799 C 225.451 52.594,225.333 52.513,225.333 52.620 M225.839 53.925 C 225.836 54.021,225.901 54.171,225.984 54.258 C 226.067 54.345,226.170 54.567,226.214 54.750 C 226.293 55.075,226.295 55.075,226.314 54.740 C 226.325 54.551,226.223 54.251,226.089 54.074 C 225.954 53.896,225.842 53.829,225.839 53.925 M226.415 55.417 C 226.486 55.600,226.607 56.012,226.684 56.333 C 226.815 56.887,226.819 56.879,226.758 56.188 C 226.722 55.787,226.601 55.375,226.489 55.271 C 226.330 55.126,226.314 55.158,226.415 55.417 M226.920 57.292 C 226.988 57.452,227.075 57.771,227.114 58.000 C 227.153 58.229,227.301 59.045,227.443 59.814 C 227.702 61.213,227.687 66.678,227.421 67.917 C 227.324 68.367,227.334 68.383,227.522 68.083 C 227.812 67.622,227.929 61.433,227.673 60.083 C 227.481 59.067,227.385 58.514,227.235 57.542 C 227.189 57.244,227.072 57.000,226.975 57.000 C 226.871 57.000,226.848 57.120,226.920 57.292 M171.538 59.340 C 171.425 59.700,171.344 60.352,171.356 60.789 C 171.369 61.226,171.407 61.396,171.441 61.167 C 171.475 60.938,171.588 60.317,171.692 59.788 C 171.914 58.655,171.828 58.408,171.538 59.340 M171.366 66.833 C 171.360 67.246,171.462 68.033,171.594 68.583 L 171.833 69.583 171.728 68.583 C 171.669 68.033,171.567 67.246,171.500 66.833 L 171.378 66.083 171.366 66.833 M227.205 69.000 C 227.205 69.321,227.240 69.452,227.282 69.292 C 227.323 69.131,227.323 68.869,227.282 68.708 C 227.240 68.548,227.205 68.679,227.205 69.000 M171.844 70.115 C 171.838 70.408,171.908 70.693,172.000 70.750 C 172.092 70.807,172.167 71.055,172.168 71.302 C 172.168 71.548,172.270 71.944,172.394 72.182 C 172.518 72.420,172.671 72.889,172.734 73.224 C 172.797 73.559,172.928 73.833,173.025 73.833 C 173.126 73.833,173.153 73.708,173.088 73.542 C 172.983 73.273,172.777 72.616,172.108 70.417 C 171.880 69.670,171.853 69.639,171.844 70.115 M226.943 70.061 C 226.874 70.324,226.856 70.579,226.905 70.627 C 227.039 70.761,227.203 70.224,227.131 69.885 C 227.085 69.663,227.035 69.709,226.943 70.061 M226.634 71.250 C 226.578 71.525,226.486 71.938,226.430 72.167 C 226.362 72.450,226.413 72.404,226.590 72.021 C 226.734 71.712,226.826 71.299,226.794 71.104 C 226.748 70.817,226.718 70.845,226.634 71.250 M226.045 73.180 C 225.932 73.481,225.869 73.758,225.906 73.795 C 226.025 73.914,226.356 73.158,226.302 72.891 C 226.271 72.738,226.166 72.857,226.045 73.180 M173.173 74.224 C 173.167 74.494,173.363 74.956,173.854 75.833 C 173.931 75.971,174.187 76.476,174.424 76.955 C 174.661 77.434,174.925 77.870,175.011 77.923 C 175.258 78.076,175.195 77.874,174.788 77.205 C 174.398 76.564,173.875 75.521,173.432 74.500 C 173.280 74.147,173.177 74.038,173.173 74.224 M225.680 74.137 C 225.654 74.573,223.836 78.142,223.067 79.268 C 220.166 83.514,216.548 86.760,212.375 88.862 C 211.618 89.243,211.035 89.591,211.079 89.634 C 211.174 89.730,213.323 88.672,213.637 88.375 C 213.758 88.260,213.964 88.167,214.095 88.167 C 214.226 88.167,214.333 88.109,214.333 88.038 C 214.333 87.968,214.671 87.725,215.083 87.500 C 215.496 87.275,215.834 87.051,215.834 87.003 C 215.835 86.956,216.115 86.729,216.457 86.500 C 217.720 85.654,221.147 82.297,221.991 81.079 C 222.308 80.623,222.633 80.204,222.715 80.148 C 222.856 80.050,223.175 79.547,223.442 79.000 C 223.510 78.862,223.663 78.651,223.782 78.530 C 223.902 78.409,224.000 78.202,224.000 78.071 C 224.000 77.940,224.061 77.833,224.135 77.833 C 224.209 77.833,224.405 77.515,224.570 77.125 C 224.735 76.735,225.093 75.948,225.366 75.375 C 225.638 74.802,225.823 74.240,225.777 74.125 C 225.713 73.966,225.690 73.969,225.680 74.137 M175.167 78.293 C 175.167 78.384,175.279 78.553,175.417 78.667 C 175.556 78.782,175.667 78.800,175.667 78.707 C 175.667 78.616,175.554 78.447,175.417 78.333 C 175.277 78.218,175.167 78.200,175.167 78.293 M175.966 79.499 C 176.122 79.773,176.311 79.998,176.386 79.999 C 176.461 80.000,176.362 79.775,176.167 79.500 C 175.709 78.857,175.601 78.857,175.966 79.499 M177.005 80.921 C 177.011 81.129,178.303 82.587,178.395 82.490 C 178.434 82.450,178.135 82.044,177.732 81.588 C 177.330 81.132,177.002 80.832,177.005 80.921 M179.500 83.750 C 180.091 84.346,180.611 84.833,180.657 84.833 C 180.703 84.833,180.257 84.346,179.667 83.750 C 179.076 83.154,178.555 82.667,178.510 82.667 C 178.464 82.667,178.909 83.154,179.500 83.750 M180.833 84.973 C 180.833 85.146,181.779 86.000,181.971 86.000 C 182.033 86.000,182.308 86.186,182.583 86.414 C 182.858 86.641,183.158 86.887,183.250 86.961 C 183.342 87.036,183.904 87.389,184.500 87.746 C 185.096 88.104,185.621 88.438,185.667 88.490 C 185.805 88.645,187.904 89.667,188.083 89.666 C 188.175 89.665,187.762 89.414,187.167 89.108 C 185.160 88.075,182.000 85.976,181.104 85.080 C 180.955 84.931,180.833 84.883,180.833 84.973 M188.425 89.822 C 188.512 89.907,188.808 90.023,189.083 90.080 C 189.582 90.183,189.581 90.182,189.023 89.925 C 188.383 89.630,188.197 89.598,188.425 89.822 M209.774 90.006 C 209.329 90.175,208.916 90.367,208.857 90.433 C 208.798 90.499,208.900 90.495,209.083 90.424 C 209.267 90.353,209.670 90.234,209.979 90.160 C 210.288 90.086,210.622 89.945,210.720 89.846 C 210.964 89.603,210.732 89.642,209.774 90.006 M189.732 90.305 C 189.799 90.412,189.942 90.500,190.052 90.501 C 190.161 90.502,190.472 90.618,190.743 90.759 C 191.013 90.900,191.559 91.060,191.955 91.114 C 192.352 91.169,192.716 91.278,192.764 91.357 C 192.813 91.435,193.055 91.493,193.302 91.484 C 193.639 91.472,193.544 91.407,192.917 91.222 C 191.943 90.934,190.388 90.421,189.931 90.238 C 189.707 90.148,189.648 90.168,189.732 90.305 M207.583 90.756 C 207.184 90.939,207.152 90.986,207.425 90.992 C 207.613 90.997,207.838 90.932,207.925 90.850 C 208.012 90.767,208.233 90.663,208.417 90.619 L 208.750 90.539 208.417 90.533 C 208.233 90.530,207.858 90.630,207.583 90.756 M205.667 91.260 C 205.142 91.459,205.126 91.482,205.508 91.491 C 205.742 91.496,206.005 91.432,206.092 91.350 C 206.179 91.267,206.400 91.163,206.583 91.119 L 206.917 91.039 206.583 91.039 C 206.400 91.040,205.987 91.139,205.667 91.260 M194.500 91.698 C 194.912 91.784,195.625 91.886,196.083 91.923 L 196.917 91.991 195.917 91.756 C 195.367 91.627,194.654 91.526,194.333 91.532 C 193.774 91.541,193.781 91.548,194.500 91.698 M203.611 91.611 C 203.550 91.672,202.807 91.773,201.959 91.836 L 200.417 91.950 201.667 91.972 C 202.354 91.984,203.292 91.889,203.750 91.762 C 204.325 91.602,204.450 91.525,204.153 91.515 C 203.916 91.507,203.672 91.550,203.611 91.611 " stroke="none" fill="#b3aebd" fill-rule="evenodd"></path></g></svg>